REM DIRINDEX 1\2\5,1\2\6,1\2\7,1\2\8,1\3\9,1\3\10,1\3\11,1\4\12,1\4\13,1\4\14,1\4\15,1\4\16
REM DIRNAME cjc034,folder01,folder02,folder03,folder04,folder05,folder06,folder07,folder08,folder09,folder10,folder11,folder12,folder13,folder14,folder15
TITLE ""
FILE "1200_sec03_1063_1071.mp3" MP3
  TRACK 01 AUDIO
    TITLE "0:"
    INDEX 01 00:00:00
  TRACK 02 AUDIO
    TITLE "16:cjc034_07939"
    INDEX 01 00:00:17
  TRACK 03 AUDIO
    TITLE "0:"
    INDEX 01 00:04:58
  TRACK 04 AUDIO
    TITLE "12:cjc034_07940"
    INDEX 01 00:05:61
  TRACK 05 AUDIO
    TITLE "0:"
    INDEX 01 00:06:59
  TRACK 06 AUDIO
    TITLE "13:cjc034_07941"
    INDEX 01 00:07:23
  TRACK 07 AUDIO
    TITLE "0:"
    INDEX 01 00:10:29
  TRACK 08 AUDIO
    TITLE "14:cjc034_07942"
    INDEX 01 00:10:61
  TRACK 09 AUDIO
    TITLE "0:"
    INDEX 01 00:11:60
  TRACK 10 AUDIO
    TITLE "15:cjc034_07943"
    INDEX 01 00:12:22
  TRACK 11 AUDIO
    TITLE "0:"
    INDEX 01 00:17:33
  TRACK 12 AUDIO
    TITLE "12:cjc034_07944"
    INDEX 01 00:18:64
  TRACK 13 AUDIO
    TITLE "0:"
    INDEX 01 00:20:04
  TRACK 14 AUDIO
    TITLE "13:cjc034_07945"
    INDEX 01 00:20:37
  TRACK 15 AUDIO
    TITLE "0:"
    INDEX 01 00:21:53
  TRACK 16 AUDIO
    TITLE "14:cjc034_07946"
    INDEX 01 00:22:11
  TRACK 17 AUDIO
    TITLE "0:"
    INDEX 01 00:23:26
  TRACK 18 AUDIO
    TITLE "15:cjc034_07947"
    INDEX 01 00:23:59
  TRACK 19 AUDIO
    TITLE "0:"
    INDEX 01 00:29:27
  TRACK 20 AUDIO
    TITLE "12:cjc034_07948"
    INDEX 01 00:30:61
  TRACK 21 AUDIO
    TITLE "0:"
    INDEX 01 00:32:15
  TRACK 22 AUDIO
    TITLE "13:cjc034_07949"
    INDEX 01 00:32:48
  TRACK 23 AUDIO
    TITLE "0:"
    INDEX 01 00:35:00
  TRACK 24 AUDIO
    TITLE "14:cjc034_07950"
    INDEX 01 00:35:31
  TRACK 25 AUDIO
    TITLE "0:"
    INDEX 01 00:36:60
  TRACK 26 AUDIO
    TITLE "15:cjc034_07951"
    INDEX 01 00:37:18
  TRACK 27 AUDIO
    TITLE "0:"
    INDEX 01 00:41:69
  TRACK 28 AUDIO
    TITLE "12:cjc034_07952"
    INDEX 01 00:43:33
  TRACK 29 AUDIO
    TITLE "0:"
    INDEX 01 00:44:63
  TRACK 30 AUDIO
    TITLE "13:cjc034_07953"
    INDEX 01 00:45:20
  TRACK 31 AUDIO
    TITLE "0:"
    INDEX 01 00:48:16
  TRACK 32 AUDIO
    TITLE "14:cjc034_07954"
    INDEX 01 00:48:53
  TRACK 33 AUDIO
    TITLE "0:"
    INDEX 01 00:50:11
  TRACK 34 AUDIO
    TITLE "15:cjc034_07955"
    INDEX 01 00:50:42
  TRACK 35 AUDIO
    TITLE "0:"
    INDEX 01 00:55:26
  TRACK 36 AUDIO
    TITLE "12:cjc034_07956"
    INDEX 01 00:56:61
  TRACK 37 AUDIO
    TITLE "0:"
    INDEX 01 00:58:24
  TRACK 38 AUDIO
    TITLE "13:cjc034_07957"
    INDEX 01 00:58:54
  TRACK 39 AUDIO
    TITLE "0:"
    INDEX 01 01:00:27
  TRACK 40 AUDIO
    TITLE "14:cjc034_07958"
    INDEX 01 01:00:59
  TRACK 41 AUDIO
    TITLE "0:"
    INDEX 01 01:02:18
  TRACK 42 AUDIO
    TITLE "15:cjc034_07959"
    INDEX 01 01:02:54
  TRACK 43 AUDIO
    TITLE "0:"
    INDEX 01 01:07:00
  TRACK 44 AUDIO
    TITLE "12:cjc034_07960"
    INDEX 01 01:08:35
  TRACK 45 AUDIO
    TITLE "0:"
    INDEX 01 01:09:63
  TRACK 46 AUDIO
    TITLE "13:cjc034_07961"
    INDEX 01 01:10:24
  TRACK 47 AUDIO
    TITLE "0:"
    INDEX 01 01:11:62
  TRACK 48 AUDIO
    TITLE "14:cjc034_07962"
    INDEX 01 01:12:19
  TRACK 49 AUDIO
    TITLE "0:"
    INDEX 01 01:13:47
  TRACK 50 AUDIO
    TITLE "15:cjc034_07963"
    INDEX 01 01:14:08
  TRACK 51 AUDIO
    TITLE "0:"
    INDEX 01 01:19:62
  TRACK 52 AUDIO
    TITLE "16:cjc034_07964"
    INDEX 01 01:21:29
  TRACK 53 AUDIO
    TITLE "0:"
    INDEX 01 01:27:14
  TRACK 54 AUDIO
    TITLE "12:cjc034_07965"
    INDEX 01 01:28:18
  TRACK 55 AUDIO
    TITLE "0:"
    INDEX 01 01:29:37
  TRACK 56 AUDIO
    TITLE "13:cjc034_07966"
    INDEX 01 01:29:70
  TRACK 57 AUDIO
    TITLE "0:"
    INDEX 01 01:32:19
  TRACK 58 AUDIO
    TITLE "14:cjc034_07967"
    INDEX 01 01:32:53
  TRACK 59 AUDIO
    TITLE "0:"
    INDEX 01 01:33:72
  TRACK 60 AUDIO
    TITLE "15:cjc034_07968"
    INDEX 01 01:34:32
  TRACK 61 AUDIO
    TITLE "0:"
    INDEX 01 01:39:23
  TRACK 62 AUDIO
    TITLE "12:cjc034_07969"
    INDEX 01 01:40:56
  TRACK 63 AUDIO
    TITLE "0:"
    INDEX 01 01:42:06
  TRACK 64 AUDIO
    TITLE "13:cjc034_07970"
    INDEX 01 01:42:43
  TRACK 65 AUDIO
    TITLE "0:"
    INDEX 01 01:44:73
  TRACK 66 AUDIO
    TITLE "14:cjc034_07971"
    INDEX 01 01:45:30
  TRACK 67 AUDIO
    TITLE "0:"
    INDEX 01 01:46:55
  TRACK 68 AUDIO
    TITLE "15:cjc034_07972"
    INDEX 01 01:47:15
  TRACK 69 AUDIO
    TITLE "0:"
    INDEX 01 01:52:55
  TRACK 70 AUDIO
    TITLE "12:cjc034_07973"
    INDEX 01 01:54:19
  TRACK 71 AUDIO
    TITLE "0:"
    INDEX 01 01:55:42
  TRACK 72 AUDIO
    TITLE "13:cjc034_07974"
    INDEX 01 01:55:73
  TRACK 73 AUDIO
    TITLE "0:"
    INDEX 01 01:57:13
  TRACK 74 AUDIO
    TITLE "14:cjc034_07975"
    INDEX 01 01:57:53
  TRACK 75 AUDIO
    TITLE "0:"
    INDEX 01 01:59:03
  TRACK 76 AUDIO
    TITLE "15:cjc034_07976"
    INDEX 01 01:59:36
  TRACK 77 AUDIO
    TITLE "0:"
    INDEX 01 02:03:61
